<svg xmlns="http://www.w3.org/2000/svg" width="805" height="600"><rect width="805" height="600" x="0" y="0" fill="#FFFFFF" id="background"/><g transform="translate(10,10)" id="viz"><g id="arcs"><path d="M30,290A40.71575677021115,40.71575677021115 0,0,1 111.4315135404223,290" fill="none" stroke="gray" stroke-width="30" opacity="0.5"/><path d="M189.5567059841141,290A39.0625962218459,39.0625962218459 0,0,1 111.4315135404223,290" fill="none" stroke="gray" stroke-width="30" opacity="0.5"/><path d="M30,290A118.84094921390297,118.84094921390297 0,0,1 267.68189842780595,290" fill="none" stroke="gray" stroke-width="30" opacity="0.5"/><path d="M189.5567059841141,290A39.06259622184592,39.06259622184592 0,0,1 267.68189842780595,290" fill="none" stroke="gray" stroke-width="30" opacity="0.5"/><path d="M30,290A150.22337265078076,150.22337265078076 0,0,1 330.4467453015615,290" fill="none" stroke="gray" stroke-width="30" opacity="0.5"/><path d="M189.5567059841141,290A99.89444647119376,99.89444647119376 0,0,1 389.3455989265016,290" fill="none" stroke="gray" stroke-width="30" opacity="0.5"/><path d="M30,290A211.05522290012865,211.05522290012865 0,0,1 452.1104458002573,290" fill="none" stroke="gray" stroke-width="30" opacity="0.5"/><path d="M189.5567059841141,290A131.2768699080716,131.2768699080716 0,0,1 452.1104458002573,290" fill="none" stroke="gray" stroke-width="30" opacity="0.5"/><path d="M30,290A244.3706429614142,244.3706429614142 0,0,1 518.7412859228284,290" fill="none" stroke="gray" stroke-width="30" opacity="0.5"/><path d="M189.5567059841141,290A164.59228996935715,164.59228996935715 0,0,1 518.7412859228284,290" fill="none" stroke="gray" stroke-width="30" opacity="0.5"/><path d="M30,290A277.6860630226998,277.6860630226998 0,0,1 585.3721260453996,290" fill="none" stroke="gray" stroke-width="30" opacity="0.5"/><path d="M189.5567059841141,290A197.90771003064273,197.90771003064273 0,0,1 585.3721260453996,290" fill="none" stroke="gray" stroke-width="30" opacity="0.5"/><path d="M30,290A309.0684864595776,309.0684864595776 0,0,1 648.1369729191553,290" fill="none" stroke="gray" stroke-width="30" opacity="0.5"/><path d="M30,290A340.4509098964554,340.4509098964554 0,0,1 710.9018197929108,290" fill="none" stroke="gray" stroke-width="30" opacity="0.5"/><path d="M189.5567059841141,290A260.67255690439833,260.67255690439833 0,0,1 710.9018197929108,290" fill="none" stroke="gray" stroke-width="30" opacity="0.5"/><path d="M30,290A371.83333333333326,371.83333333333326 0,0,1 773.6666666666665,290" fill="none" stroke="gray" stroke-width="30" opacity="0.5"/></g><g id="nodes"><g><circle cx="30" cy="290" r="30"/><text transform="translate(30,325) rotate(-90)" alignment-baseline="middle" font-family="Helvetica, Arial, sans-serif" font-size="12" text-anchor="end">MALE</text></g><g><circle cx="111.4315135404223" cy="290" r="15.199326582148888"/><text transform="translate(111.4315135404223,310.1993265821489) rotate(-90)" alignment-baseline="middle" font-family="Helvetica, Arial, sans-serif" font-size="12" text-anchor="end">ANTI-ASIAN</text></g><g><circle cx="189.5567059841141" cy="290" r="26.69367890326951"/><text transform="translate(189.5567059841141,321.69367890326953) rotate(-90)" alignment-baseline="middle" font-family="Helvetica, Arial, sans-serif" font-size="12" text-anchor="end">FEMALE</text></g><g><circle cx="267.68189842780595" cy="290" r="15.199326582148888"/><text transform="translate(267.68189842780595,310.1993265821489) rotate(-90)" alignment-baseline="middle" font-family="Helvetica, Arial, sans-serif" font-size="12" text-anchor="end">ANTI-BLACK</text></g><g><circle cx="330.4467453015615" cy="290" r="11.333333333333334"/><text transform="translate(330.4467453015615,306.3333333333333) rotate(-90)" alignment-baseline="middle" font-family="Helvetica, Arial, sans-serif" font-size="12" text-anchor="end">ANTI-FEMALE</text></g><g><circle cx="389.3455989265016" cy="290" r="11.333333333333334"/><text transform="translate(389.3455989265016,306.3333333333333) rotate(-90)" alignment-baseline="middle" font-family="Helvetica, Arial, sans-serif" font-size="12" text-anchor="end">ANTI-ISLAMIC(MUSLIM)</text></g><g><circle cx="452.1104458002573" cy="290" r="15.199326582148888"/><text transform="translate(452.1104458002573,310.1993265821489) rotate(-90)" alignment-baseline="middle" font-family="Helvetica, Arial, sans-serif" font-size="12" text-anchor="end">ANTI-JEWISH</text></g><g><circle cx="518.7412859228284" cy="290" r="15.199326582148888"/><text transform="translate(518.7412859228284,310.1993265821489) rotate(-90)" alignment-baseline="middle" font-family="Helvetica, Arial, sans-serif" font-size="12" text-anchor="end">ANTI-LGBT(MIXED GROUP)</text></g><g><circle cx="585.3721260453996" cy="290" r="15.199326582148888"/><text transform="translate(585.3721260453996,310.1993265821489) rotate(-90)" alignment-baseline="middle" font-family="Helvetica, Arial, sans-serif" font-size="12" text-anchor="end">ANTI-MALE HOMOSEXUAL(GAY)</text></g><g><circle cx="648.1369729191553" cy="290" r="11.333333333333334"/><text transform="translate(648.1369729191553,306.3333333333333) rotate(-90)" alignment-baseline="middle" font-family="Helvetica, Arial, sans-serif" font-size="12" text-anchor="end">ANTI-TRANSGENDER</text></g><g><circle cx="710.9018197929108" cy="290" r="15.199326582148888"/><text transform="translate(710.9018197929108,310.1993265821489) rotate(-90)" alignment-baseline="middle" font-family="Helvetica, Arial, sans-serif" font-size="12" text-anchor="end">ANTI-WHITE</text></g><g><circle cx="773.6666666666665" cy="290" r="11.333333333333334"/><text transform="translate(773.6666666666665,306.3333333333333) rotate(-90)" alignment-baseline="middle" font-family="Helvetica, Arial, sans-serif" font-size="12" text-anchor="end">OTHER</text></g></g></g></svg>